PathFileType	4	(x/y/z)	S08_P20_T05
DataRate	CameraRate	NumFrames	NumMarkers	Units	OrigDataRate	OrigDataStartFrame	OrigNumFrames
240	240	8	51	mm	240	1	388
Frame#	Time	Sternum			R.Acromium			L.Acromium			Top.Head			R.ASIS			L.ASIS			R.PSIS			L.PSIS			R.Great.Tro			L.Great.Tro			R.Iliac.Crest			L.Iliac.Crest			V.Sacral			R.Thigh.Upper.Post			R.Thigh.Lower.Ant			R.Thigh.Lower.Post			R.Thigh.Upper.Ant			R.Knee.Lat			R.Knee.Med			R.Shank.Upper.Post			R.Shank.Lower.Ant			R.Shank.Lower.Post			R.Shank.Upper.Ant			R.Ankle.Lat			R.Ankle.Med			R.Heel.Upper			R.Heel.Med			R.Heel.Lat			R.Toe.Lat			R.Toe.Med			R.Toe.Tip			L.Thigh.Upper.Post			L.Thigh.Lower.Ant			L.Thigh.Lower.Post			L.Thigh.Upper.Ant			L.Knee.Lat			L.Knee.Med			L.Shank.Upper.Post			L.Shank.Lower.Ant			L.Shank.Lower.Post			L.Shank.Upper.Ant			L.Ankle.Lat			L.Ankle.Med			L.Heel.Upper			L.Heel.Med			L.Heel.Lat			L.Toe.Lat			L.Toe.Med			L.Toe.Tip			Cervical.Spine			Back			
		X1	Y1	Z1	X2	Y2	Z2	X3	Y3	Z3	X4	Y4	Z4	X5	Y5	Z5	X6	Y6	Z6	X7	Y7	Z7	X8	Y8	Z8	X9	Y9	Z9	X10	Y10	Z10	X11	Y11	Z11	X12	Y12	Z12	X13	Y13	Z13	X14	Y14	Z14	X15	Y15	Z15	X16	Y16	Z16	X17	Y17	Z17	X18	Y18	Z18	X19	Y19	Z19	X20	Y20	Z20	X21	Y21	Z21	X22	Y22	Z22	X23	Y23	Z23	X24	Y24	Z24	X25	Y25	Z25	X26	Y26	Z26	X27	Y27	Z27	X28	Y28	Z28	X29	Y29	Z29	X30	Y30	Z30	X31	Y31	Z31	X32	Y32	Z32	X33	Y33	Z33	X34	Y34	Z34	X35	Y35	Z35	X36	Y36	Z36	X37	Y37	Z37	X38	Y38	Z38	X39	Y39	Z39	X40	Y40	Z40	X41	Y41	Z41	X42	Y42	Z42	X43	Y43	Z43	X44	Y44	Z44	X45	Y45	Z45	X46	Y46	Z46	X47	Y47	Z47	X48	Y48	Z48	X49	Y49	Z49	X50	Y50	Z50	X51	Y51	Z51	

1	0	NaN	NaN	NaN	-1446	1462.9	482.44	-1477.1	1486.4	147.9	-1437.8	1778.4	332.87	NaN	NaN	NaN	NaN	NaN	NaN	NaN	NaN	NaN	NaN	NaN	NaN	-1470.5	906	484.95	-1453.9	905.26	112.62	-1479.1	1080.5	460.02	-1471.6	1093.1	151.18	-1596.7	994.25	288.92	-1545.8	719.98	462.42	-1476.6	608.56	429.21	-1553.5	629.6	444.53	NaN	NaN	NaN	-1553.4	519.04	421.06	-1567.8	528.98	292.19	-1671.5	360.07	417.9	NaN	NaN	NaN	-1689.6	285.69	406.66	NaN	NaN	NaN	-1737.4	125.67	364.12	NaN	NaN	NaN	-1786.3	88.906	315.46	-1772.7	59.251	289.82	-1785.1	65.153	350.07	-1614.2	39.084	410.25	-1584.7	50.548	292.75	-1526.1	56.886	345.75	-1396.8	693.18	129.08	-1281	642.87	149.15	-1350.7	617.98	146.13	-1328.6	715.79	126.53	-1295.9	536.56	163.37	-1291.2	534.64	289.59	-1306.1	351.01	160.05	-1211.9	283.44	176.48	-1283.3	278.6	175.48	-1231	356.56	161.64	-1209.6	114.09	185.06	-1187.6	129.73	274.2	-1251.4	67.994	233.78	-1227.7	43.396	267.29	-1233.7	46.144	203.23	-1066.8	88.697	170.81	-1048.9	104.84	284	-993.94	139.63	235.58	-1533.8	1521.2	316.25	-1584.1	1239.1	324.76
2	0.0041667	NaN	NaN	NaN	-1441	1462.2	482.11	-1472.2	1485.6	147.48	-1433.1	1777.8	332.55	NaN	NaN	NaN	NaN	NaN	NaN	NaN	NaN	NaN	NaN	NaN	NaN	-1465.4	905.37	484.7	-1448.7	904.49	112.48	-1473.8	1079.8	459.73	-1466.2	1092.4	150.88	-1591.3	993.57	288.52	-1540.8	719.39	462.1	-1471.7	608.02	429.08	-1548.5	628.99	444.29	NaN	NaN	NaN	-1549.5	518.76	421.19	-1563	528.42	292.16	-1668.5	360.74	417.97	NaN	NaN	NaN	-1687.1	286.52	406.85	NaN	NaN	NaN	-1736.5	126.73	364.52	NaN	NaN	NaN	-1785.8	90.426	315.86	-1772.4	60.838	290.05	-1784.8	66.521	350.39	-1614.1	38.919	410.34	-1584.7	50.659	292.89	-1525.7	57.025	345.7	-1391.9	692.53	129.18	-1276.3	642.01	149.26	-1345.9	617.26	146.32	-1323	715.28	126.08	-1291.5	535.66	163.6	-1286.4	534.1	289.94	-1301.9	349.96	160.55	-1207.8	282.29	177.3	-1279.4	277.6	176	-1227.2	355.31	162.46	-1206.2	113.14	185.75	-1184.2	128.66	275.02	-1248.2	67.649	234.61	-1224.7	42.771	268	-1230.8	45.671	204.03	-1063.3	87.175	171.86	-1045.7	103.17	284.84	-990.55	137.89	236.52	-1528.9	1520.4	315.92	-1579	1238.2	324.5
3	0.0083333	NaN	NaN	NaN	-1435.8	1461.4	481.76	-1467.1	1484.8	147.05	-1428.3	1777.1	332.2	NaN	NaN	NaN	NaN	NaN	NaN	NaN	NaN	NaN	NaN	NaN	NaN	-1460.2	904.71	484.43	-1443.2	903.71	112.34	-1468.2	1079	459.42	-1460.6	1091.6	150.55	-1585.8	992.89	288.11	-1535.6	718.75	461.76	-1466.4	607.45	428.94	-1543.3	628.34	444.05	NaN	NaN	NaN	-1545.2	518.45	421.32	-1557.9	527.81	292.15	-1665.4	361.47	418.04	NaN	NaN	NaN	-1684.4	287.39	407.07	NaN	NaN	NaN	-1735.6	127.87	364.95	NaN	NaN	NaN	-1785.3	92.078	316.29	-1772	62.563	290.31	-1784.4	68.017	350.74	-1614	38.745	410.44	-1584.6	50.774	293.03	-1525.2	57.15	345.65	-1386.8	691.86	129.29	-1271.4	641.11	149.39	-1340.8	616.51	146.53	-1317.2	714.74	125.67	-1286.9	534.73	163.84	-1281.3	533.54	290.3	-1297.5	348.88	161.04	-1203.7	281.08	178.15	-1275.3	276.57	176.51	-1223.3	354.03	163.28	-1202.9	112.15	186.45	-1180.8	127.53	275.85	-1244.9	67.332	235.45	-1221.8	42.149	268.7	-1227.8	45.219	204.81	-1059.9	85.532	172.94	-1042.5	101.35	285.72	-987.14	135.97	237.51	-1523.8	1519.7	315.56	-1573.6	1237.4	324.21
4	0.0125	NaN	NaN	NaN	-1430.5	1460.7	481.4	-1461.9	1484	146.59	-1423.3	1776.5	331.85	NaN	NaN	NaN	NaN	NaN	NaN	NaN	NaN	NaN	NaN	NaN	NaN	-1454.7	904.05	484.14	-1437.6	902.92	112.19	-1462.4	1078.3	459.1	-1454.7	1090.9	150.21	-1580	992.2	287.68	-1530.1	718.08	461.4	-1460.9	606.86	428.8	-1537.8	627.65	443.79	NaN	NaN	NaN	-1540.7	518.11	421.46	-1552.5	527.17	292.16	-1662.1	362.25	418.12	NaN	NaN	NaN	-1681.5	288.32	407.32	NaN	NaN	NaN	-1734.5	129.09	365.42	NaN	NaN	NaN	-1784.6	93.869	316.75	-1771.6	64.436	290.59	-1784	69.649	351.12	-1614	38.563	410.55	-1584.6	50.893	293.19	-1524.8	57.257	345.6	-1381.5	691.18	129.41	-1266.3	640.2	149.54	-1335.6	615.74	146.74	-1311.2	714.17	125.3	-1282.1	533.79	164.09	-1276.1	532.96	290.65	-1293	347.8	161.54	-1199.6	279.82	179	-1271.2	275.54	177.02	-1219.2	352.71	164.12	-1199.6	111.12	187.13	-1177.4	126.34	276.69	-1241.7	67.058	236.28	-1218.9	41.542	269.38	-1224.9	44.805	205.56	-1056.4	83.767	174.04	-1039.3	99.366	286.63	-983.78	133.84	238.54	-1518.6	1518.9	315.17	-1568.1	1236.5	323.91
5	0.016667	NaN	NaN	NaN	-1425	1459.9	481.02	-1456.6	1483.2	146.12	-1418.2	1775.9	331.48	NaN	NaN	NaN	NaN	NaN	NaN	NaN	NaN	NaN	NaN	NaN	NaN	-1449.1	903.38	483.84	-1431.7	902.13	112.04	-1456.5	1077.5	458.77	-1448.7	1090.1	149.86	-1574	991.52	287.25	-1524.4	717.36	461.03	-1455.1	606.24	428.66	-1532	626.92	443.52	NaN	NaN	NaN	-1535.8	517.72	421.6	-1546.9	526.49	292.18	-1658.5	363.09	418.2	-1612.3	285.08	396.91	-1678.4	289.3	407.61	NaN	NaN	NaN	-1733.3	130.39	365.94	NaN	NaN	NaN	-1783.9	95.811	317.25	-1771.2	66.466	290.89	-1783.6	71.428	351.53	-1613.9	38.378	410.65	-1584.5	51.017	293.37	-1524.4	57.341	345.56	-1376.1	690.49	129.54	-1261	639.27	149.69	-1330.3	614.97	146.96	-1305.2	713.56	125	-1277.1	532.84	164.34	-1270.8	532.36	291.01	-1288.4	346.73	162.03	-1195.4	278.53	179.84	-1267.1	274.51	177.5	-1215.1	351.37	164.95	-1196.3	110.07	187.79	-1174.1	125.11	277.52	-1238.6	66.838	237.09	-1216.2	40.961	270.03	-1222.2	44.437	206.28	-1053.1	81.883	175.14	-1036.3	97.226	287.56	-980.48	131.5	239.6	-1513.2	1518.2	314.77	-1562.4	1235.6	323.57
6	0.020833	NaN	NaN	NaN	-1419.4	1459.1	480.62	-1451.1	1482.4	145.63	-1413	1775.3	331.1	NaN	NaN	NaN	NaN	NaN	NaN	NaN	NaN	NaN	NaN	NaN	NaN	-1443.3	902.7	483.51	-1425.8	901.36	111.88	-1450.4	1076.8	458.44	-1442.6	1089.4	149.49	-1567.9	990.85	286.81	-1518.5	716.61	460.65	-1449.1	605.6	428.52	-1526	626.14	443.25	NaN	NaN	NaN	-1530.6	517.3	421.74	-1541	525.77	292.22	-1654.8	363.98	418.29	-1609	285.6	397.24	-1675	290.34	407.93	NaN	NaN	NaN	-1732	131.78	366.5	NaN	NaN	NaN	-1783.1	97.913	317.77	-1770.7	68.666	291.22	-1783.1	73.367	351.97	-1613.9	38.192	410.76	-1584.5	51.147	293.56	-1524	57.395	345.52	-1370.5	689.82	129.67	-1255.7	638.34	149.86	-1324.8	614.21	147.19	-1299.1	712.93	124.76	-1272.1	531.88	164.59	-1265.4	531.74	291.35	-1283.8	345.68	162.51	-1191.2	277.22	180.68	-1262.9	273.49	177.95	-1211	350.02	165.78	-1193.2	109.02	188.42	-1170.9	123.84	278.33	-1235.6	66.68	237.87	-1213.6	40.416	270.64	-1219.5	44.127	206.94	-1050	79.886	176.23	-1033.5	94.93	288.5	-977.31	128.96	240.69	-1507.7	1517.4	314.34	-1556.6	1234.8	323.22
7	0.025	-1307.1	1214.5	296.65	-1413.8	1458.4	480.21	-1445.6	1481.6	145.13	-1407.6	1774.7	330.71	NaN	NaN	NaN	NaN	NaN	NaN	NaN	NaN	NaN	NaN	NaN	NaN	-1437.3	902.03	483.16	-1419.7	900.61	111.71	-1444.2	1076.1	458.1	-1436.3	1088.7	149.12	-1561.7	990.21	286.36	-1512.4	715.82	460.26	-1442.8	604.93	428.39	-1519.7	625.32	442.97	NaN	NaN	NaN	-1525.1	516.84	421.88	-1534.8	525.01	292.29	-1650.9	364.92	418.4	-1605.3	286.13	397.61	-1671.5	291.42	408.3	NaN	NaN	NaN	-1730.6	133.26	367.12	NaN	NaN	NaN	-1782.2	100.19	318.34	-1770.1	71.048	291.58	-1782.5	75.479	352.44	-1613.8	38.01	410.87	-1584.4	51.284	293.77	-1523.7	57.414	345.49	-1364.8	689.16	129.8	-1250.2	637.42	150.04	-1319.3	613.46	147.42	-1293	712.28	124.61	-1266.9	530.93	164.84	-1259.9	531.11	291.68	-1279.2	344.66	162.96	-1187.1	275.89	181.5	-1258.8	272.5	178.37	-1206.8	348.67	166.58	-1190.1	107.95	189.02	-1167.9	122.54	279.12	-1232.8	66.591	238.61	-1211.2	39.914	271.2	-1217.1	43.879	207.55	-1047	77.787	177.3	-1030.8	92.492	289.45	-974.27	126.22	241.79	-1502.1	1516.7	313.89	-1550.7	1233.9	322.84
8	0.029167	-1301.9	1214.2	296.23	-1408.2	1457.7	479.78	-1440	1480.9	144.62	-1402.2	1774.1	330.32	NaN	NaN	NaN	NaN	NaN	NaN	NaN	NaN	NaN	NaN	NaN	NaN	-1431.3	901.36	482.8	-1413.5	899.89	111.53	-1437.9	1075.4	457.75	-1429.9	1088	148.75	-1555.5	989.6	285.91	-1506.1	714.99	459.87	-1436.4	604.25	428.26	-1513.1	624.46	442.69	NaN	NaN	NaN	-1519.3	516.33	422.03	-1528.4	524.21	292.39	-1646.8	365.92	418.52	-1601.5	286.68	398.02	-1667.7	292.56	408.7	NaN	NaN	NaN	-1729.1	134.86	367.79	NaN	NaN	NaN	-1781.2	102.65	318.93	-1769.4	73.625	291.97	-1781.9	77.778	352.95	-1613.8	37.836	410.98	-1584.3	51.433	293.99	-1523.4	57.393	345.46	-1359.1	688.52	129.92	-1244.6	636.51	150.21	-1313.6	612.72	147.64	-1286.9	711.6	124.54	-1261.7	530.01	165.09	-1254.4	530.47	291.99	-1274.5	343.69	163.38	-1183	274.56	182.29	-1254.7	271.53	178.74	-1202.7	347.34	167.35	-1187.2	106.9	189.58	-1165	121.23	279.86	-1230.1	66.572	239.31	-1209.1	39.461	271.7	-1214.8	43.697	208.09	-1044.2	75.601	178.33	-1028.4	89.927	290.38	-971.4	123.31	242.88	-1496.5	1516	313.42	-1544.7	1233.1	322.43
